<svg xmlns="http://www.w3.org/2000/svg" viewBox="0 0 100 100">
  <defs>
    <linearGradient id="foxGradient" x1="0%" y1="0%" x2="100%" y2="100%">
      <stop offset="0%" style="stop-color:#FF6B35;stop-opacity:1" />
      <stop offset="100%" style="stop-color:#F7931E;stop-opacity:1" />
    </linearGradient>
  </defs>
  
  <!-- Фон -->
  <circle cx="50" cy="50" r="45" fill="url(#foxGradient)" stroke="#E55A2B" stroke-width="2"/>
  
  <!-- Морда лисы -->
  <ellipse cx="50" cy="55" rx="25" ry="20" fill="#FF8C42"/>
  
  <!-- Нос -->
  <ellipse cx="50" cy="60" rx="3" ry="2" fill="#000"/>
  
  <!-- Глаза -->
  <circle cx="42" cy="50" r="4" fill="#000"/>
  <circle cx="58" cy="50" r="4" fill="#000"/>
  <circle cx="42" cy="50" r="1.5" fill="#FFF"/>
  <circle cx="58" cy="50" r="1.5" fill="#FFF"/>
  
  <!-- Уши -->
  <path d="M 30 25 Q 25 15 35 20 L 40 30 Z" fill="#FF8C42"/>
  <path d="M 70 25 Q 75 15 65 20 L 60 30 Z" fill="#FF8C42"/>
  
  <!-- Внутренние уши -->
  <path d="M 32 23 Q 28 18 34 20 L 38 28 Z" fill="#FFB366"/>
  <path d="M 68 23 Q 72 18 66 20 L 62 28 Z" fill="#FFB366"/>
  
  <!-- Щеки -->
  <circle cx="35" cy="58" r="3" fill="#FFB366" opacity="0.7"/>
  <circle cx="65" cy="58" r="3" fill="#FFB366" opacity="0.7"/>
  
  <!-- Улыбка -->
  <path d="M 45 65 Q 50 70 55 65" stroke="#000" stroke-width="1.5" fill="none"/>
</svg> 